<?xml version="1.0" encoding="UTF-8"?>
<svg id="Capa_1" data-name="Capa 1" xmlns="http://www.w3.org/2000/svg" viewBox="0 0 630.68 201.69">
  <defs>
    <style>
      .cls-1 {
        fill: #04a0aa;
      }

      .cls-1, .cls-2, .cls-3, .cls-4 {
        stroke-width: 0px;
      }

      .cls-2 {
        fill: #036c8b;
      }

      .cls-3 {
        fill: #02487a;
      }

      .cls-4 {
        fill: #3ea266;
      }
    </style>
  </defs>
  <g>
    <g>
      <path class="cls-3" d="M329.83,50.08h10.2v17.22h16.86v-17.22h10.2v44.64h-10.2v-18.9h-16.86v18.9h-10.2v-44.64Z"/>
      <path class="cls-3" d="M372.49,78.82c0-9.6,6.72-16.92,16.92-16.92s16.8,7.32,16.8,16.92-6.66,16.92-16.8,16.92-16.92-7.38-16.92-16.92ZM396.67,78.82c0-6.06-2.64-10.2-7.32-10.2s-7.32,4.14-7.32,10.2,2.52,10.08,7.32,10.08,7.32-4.08,7.32-10.08Z"/>
      <path class="cls-3" d="M420.01,68.5h.18c2.04-4.44,4.92-6.24,8.88-6.24.9,0,1.56.06,1.98.24v8.22h-.24c-.66-.12-1.32-.18-1.98-.18-5.1-.06-8.46,3.12-8.46,9.36v14.82h-9.42v-31.92h9.06v5.7Z"/>
      <path class="cls-3" d="M435.49,50.08h9.54v8.22h-9.54v-8.22ZM435.55,62.8h9.42v31.92h-9.42v-31.92Z"/>
      <path class="cls-3" d="M450.25,87.7l11.4-12.9c1.92-2.1,5.34-4.98,5.34-4.98v-.18s-4.2.48-6.9.48h-8.46v-7.32h25.92v6.78l-10.98,12.48c-2.16,2.34-6.06,5.52-6.06,5.52v.18s4.56-.42,7.44-.42h10.44v7.38h-28.14v-7.02Z"/>
      <path class="cls-3" d="M481.39,78.82c0-9.6,6.72-16.92,16.92-16.92s16.8,7.32,16.8,16.92-6.66,16.92-16.8,16.92-16.92-7.38-16.92-16.92ZM505.57,78.82c0-6.06-2.64-10.2-7.32-10.2s-7.32,4.14-7.32,10.2,2.52,10.08,7.32,10.08,7.32-4.08,7.32-10.08Z"/>
      <path class="cls-3" d="M528.97,67.66h.18c1.98-3.84,5.4-5.76,9.84-5.76,7.02,0,11.1,4.68,11.1,11.82v21h-9.36v-19.2c0-3.48-1.86-5.82-5.34-5.82-3.66,0-6.12,2.94-6.12,7.02v18h-9.42v-31.92h9.12v4.86Z"/>
      <path class="cls-3" d="M553.63,62.8h4.8v-10.2h9.24v10.2h6.24v6h-6.24v15.84c0,2.4,1.32,3.06,3.54,3.06.6,0,1.56-.06,2.16-.12h.48v7.02c-1.02.18-2.94.48-5.46.48-5.94,0-9.96-1.92-9.96-8.4v-17.88h-4.8v-6Z"/>
      <path class="cls-3" d="M577.33,78.82c0-9.6,6.66-16.92,16.38-16.92,4.56,0,8.16,1.5,10.98,4.08,3.6,3.48,5.22,8.88,5.16,15.18h-23.28c.6,4.8,3.18,7.68,7.74,7.68,2.94,0,4.8-1.14,5.82-3.12h9.12c-1.62,5.64-6.84,9.96-15.06,9.96-10.44,0-16.86-7.32-16.86-16.86ZM586.63,75.7h13.62c-.3-4.44-2.82-7.14-6.54-7.14-4.32,0-6.48,2.76-7.08,7.14Z"/>
    </g>
    <g>
      <path class="cls-3" d="M345.73,106.08h10.62l16.14,44.64h-10.8l-2.82-8.52h-16.2l-2.76,8.52h-10.26l16.08-44.64ZM345.07,134.88h11.46l-2.7-8.34c-1.92-6.12-2.88-11.88-2.88-11.88h-.12s-1.56,7.5-3,11.88l-2.76,8.34Z"/>
      <path class="cls-3" d="M375.37,143.7l11.4-12.9c1.92-2.1,5.34-4.98,5.34-4.98v-.18s-4.2.48-6.9.48h-8.46v-7.32h25.92v6.78l-10.98,12.48c-2.16,2.34-6.06,5.52-6.06,5.52v.18s4.56-.42,7.44-.42h10.44v7.38h-28.14v-7.02Z"/>
      <path class="cls-3" d="M429.37,150.72v-4.56h-.18c-2.34,3.72-5.22,5.46-9.6,5.46-7.26,0-11.22-4.68-11.22-11.7v-21.12h9.42v19.32c0,3.54,1.74,5.58,5.1,5.58,3.78,0,6.12-2.88,6.12-6.84v-18.06h9.3v31.92h-8.94Z"/>
      <path class="cls-3" d="M444.67,106.08h9.48v44.64h-9.48v-44.64Z"/>
    </g>
  </g>
  <g>
    <path class="cls-1" d="M237.95,116.35s-17.62,21.98-39.62,22.97c-20.96.95-36.11-19.97-37.49-21.95-1.4,1.98-16.54,22.9-37.5,21.95-21.26-.96-38.42-21.5-39.55-22.87l.07-.07,38.12-31.15c4.28.61,17.53-22.38,38.75-22.88.04-.01.07-.01.11-.01.03,0,.07,0,.1.01,21.41.49,34.7,23.88,38.86,22.87.01,0,.03-.01.04-.01l38.11,31.14"/>
    <path class="cls-2" d="M121.99,85.27c-4.17-1.02-20.53-22.74-34.19-22.87-13.67-.14-30.74,16.23-35.7,20.14-4.96,3.91-37.49,10.97-30.21,33.3,14.84,47.45,61.97.59,61.97.59l38.13-31.16Z"/>
    <path class="cls-4" d="M199.82,85.21c4.17-1.02,20.53-22.74,34.19-22.87,13.67-.14,30.74,16.23,35.7,20.14,4.96,3.91,37.49,10.97,30.21,33.3-14.84,47.45-61.97.59-61.97.59l-38.13-31.16Z"/>
  </g>
</svg>